<?xml version="1.0" encoding="utf-8" standalone="no"?>
<!DOCTYPE svg PUBLIC "-//W3C//DTD SVG 1.1//EN"
  "http://www.w3.org/Graphics/SVG/1.1/DTD/svg11.dtd">
<svg xmlns:xlink="http://www.w3.org/1999/xlink" width="1382.4pt" height="692.64pt" viewBox="0 0 1382.4 692.64" xmlns="http://www.w3.org/2000/svg" version="1.1">
 <metadata>
  <rdf:RDF xmlns:dc="http://purl.org/dc/elements/1.1/" xmlns:cc="http://creativecommons.org/ns#" xmlns:rdf="http://www.w3.org/1999/02/22-rdf-syntax-ns#">
   <cc:Work>
    <dc:type rdf:resource="http://purl.org/dc/dcmitype/StillImage"/>
    <dc:date>2024-11-09T08:46:13.810121</dc:date>
    <dc:format>image/svg+xml</dc:format>
    <dc:creator>
     <cc:Agent>
      <dc:title>Matplotlib v3.9.2, https://matplotlib.org/</dc:title>
     </cc:Agent>
    </dc:creator>
   </cc:Work>
  </rdf:RDF>
 </metadata>
 <defs>
  <style type="text/css">*{stroke-linejoin: round; stroke-linecap: butt}</style>
 </defs>
 <g id="figure_1">
  <g id="patch_1">
   <path d="M 0 692.64 
L 1382.4 692.64 
L 1382.4 0 
L 0 0 
z
" style="fill: #ffffff"/>
  </g>
  <g id="axes_1">
   <g id="patch_2">
    <path d="M 172.8 616.4496 
L 1244.16 616.4496 
L 1244.16 83.1168 
L 172.8 83.1168 
z
" style="fill: #ffffff"/>
   </g>
   <g id="matplotlib.axis_1">
    <g id="xtick_1">
     <g id="line2d_1">
      <defs>
       <path id="mcbf8f1d8b0" d="M 0 0 
L 0 3.5 
" style="stroke: #000000; stroke-width: 0.8"/>
      </defs>
      <g>
       <use xlink:href="#mcbf8f1d8b0" x="221.498182" y="616.4496" style="stroke: #000000; stroke-width: 0.8"/>
      </g>
     </g>
     <g id="text_1">
      <!-- 0 -->
      <g transform="translate(218.316932 631.048037) scale(0.1 -0.1)">
       <defs>
        <path id="DejaVuSans-30" d="M 2034 4250 
Q 1547 4250 1301 3770 
Q 1056 3291 1056 2328 
Q 1056 1369 1301 889 
Q 1547 409 2034 409 
Q 2525 409 2770 889 
Q 3016 1369 3016 2328 
Q 3016 3291 2770 3770 
Q 2525 4250 2034 4250 
z
M 2034 4750 
Q 2819 4750 3233 4129 
Q 3647 3509 3647 2328 
Q 3647 1150 3233 529 
Q 2819 -91 2034 -91 
Q 1250 -91 836 529 
Q 422 1150 422 2328 
Q 422 3509 836 4129 
Q 1250 4750 2034 4750 
z
" transform="scale(0.015625)"/>
       </defs>
       <use xlink:href="#DejaVuSans-30"/>
      </g>
     </g>
    </g>
    <g id="xtick_2">
     <g id="line2d_2">
      <g>
       <use xlink:href="#mcbf8f1d8b0" x="351.360866" y="616.4496" style="stroke: #000000; stroke-width: 0.8"/>
      </g>
     </g>
     <g id="text_2">
      <!-- 200 -->
      <g transform="translate(341.817116 631.048037) scale(0.1 -0.1)">
       <defs>
        <path id="DejaVuSans-32" d="M 1228 531 
L 3431 531 
L 3431 0 
L 469 0 
L 469 531 
Q 828 903 1448 1529 
Q 2069 2156 2228 2338 
Q 2531 2678 2651 2914 
Q 2772 3150 2772 3378 
Q 2772 3750 2511 3984 
Q 2250 4219 1831 4219 
Q 1534 4219 1204 4116 
Q 875 4013 500 3803 
L 500 4441 
Q 881 4594 1212 4672 
Q 1544 4750 1819 4750 
Q 2544 4750 2975 4387 
Q 3406 4025 3406 3419 
Q 3406 3131 3298 2873 
Q 3191 2616 2906 2266 
Q 2828 2175 2409 1742 
Q 1991 1309 1228 531 
z
" transform="scale(0.015625)"/>
       </defs>
       <use xlink:href="#DejaVuSans-32"/>
       <use xlink:href="#DejaVuSans-30" x="63.623047"/>
       <use xlink:href="#DejaVuSans-30" x="127.246094"/>
      </g>
     </g>
    </g>
    <g id="xtick_3">
     <g id="line2d_3">
      <g>
       <use xlink:href="#mcbf8f1d8b0" x="481.22355" y="616.4496" style="stroke: #000000; stroke-width: 0.8"/>
      </g>
     </g>
     <g id="text_3">
      <!-- 400 -->
      <g transform="translate(471.6798 631.048037) scale(0.1 -0.1)">
       <defs>
        <path id="DejaVuSans-34" d="M 2419 4116 
L 825 1625 
L 2419 1625 
L 2419 4116 
z
M 2253 4666 
L 3047 4666 
L 3047 1625 
L 3713 1625 
L 3713 1100 
L 3047 1100 
L 3047 0 
L 2419 0 
L 2419 1100 
L 313 1100 
L 313 1709 
L 2253 4666 
z
" transform="scale(0.015625)"/>
       </defs>
       <use xlink:href="#DejaVuSans-34"/>
       <use xlink:href="#DejaVuSans-30" x="63.623047"/>
       <use xlink:href="#DejaVuSans-30" x="127.246094"/>
      </g>
     </g>
    </g>
    <g id="xtick_4">
     <g id="line2d_4">
      <g>
       <use xlink:href="#mcbf8f1d8b0" x="611.086234" y="616.4496" style="stroke: #000000; stroke-width: 0.8"/>
      </g>
     </g>
     <g id="text_4">
      <!-- 600 -->
      <g transform="translate(601.542484 631.048037) scale(0.1 -0.1)">
       <defs>
        <path id="DejaVuSans-36" d="M 2113 2584 
Q 1688 2584 1439 2293 
Q 1191 2003 1191 1497 
Q 1191 994 1439 701 
Q 1688 409 2113 409 
Q 2538 409 2786 701 
Q 3034 994 3034 1497 
Q 3034 2003 2786 2293 
Q 2538 2584 2113 2584 
z
M 3366 4563 
L 3366 3988 
Q 3128 4100 2886 4159 
Q 2644 4219 2406 4219 
Q 1781 4219 1451 3797 
Q 1122 3375 1075 2522 
Q 1259 2794 1537 2939 
Q 1816 3084 2150 3084 
Q 2853 3084 3261 2657 
Q 3669 2231 3669 1497 
Q 3669 778 3244 343 
Q 2819 -91 2113 -91 
Q 1303 -91 875 529 
Q 447 1150 447 2328 
Q 447 3434 972 4092 
Q 1497 4750 2381 4750 
Q 2619 4750 2861 4703 
Q 3103 4656 3366 4563 
z
" transform="scale(0.015625)"/>
       </defs>
       <use xlink:href="#DejaVuSans-36"/>
       <use xlink:href="#DejaVuSans-30" x="63.623047"/>
       <use xlink:href="#DejaVuSans-30" x="127.246094"/>
      </g>
     </g>
    </g>
    <g id="xtick_5">
     <g id="line2d_5">
      <g>
       <use xlink:href="#mcbf8f1d8b0" x="740.948918" y="616.4496" style="stroke: #000000; stroke-width: 0.8"/>
      </g>
     </g>
     <g id="text_5">
      <!-- 800 -->
      <g transform="translate(731.405168 631.048037) scale(0.1 -0.1)">
       <defs>
        <path id="DejaVuSans-38" d="M 2034 2216 
Q 1584 2216 1326 1975 
Q 1069 1734 1069 1313 
Q 1069 891 1326 650 
Q 1584 409 2034 409 
Q 2484 409 2743 651 
Q 3003 894 3003 1313 
Q 3003 1734 2745 1975 
Q 2488 2216 2034 2216 
z
M 1403 2484 
Q 997 2584 770 2862 
Q 544 3141 544 3541 
Q 544 4100 942 4425 
Q 1341 4750 2034 4750 
Q 2731 4750 3128 4425 
Q 3525 4100 3525 3541 
Q 3525 3141 3298 2862 
Q 3072 2584 2669 2484 
Q 3125 2378 3379 2068 
Q 3634 1759 3634 1313 
Q 3634 634 3220 271 
Q 2806 -91 2034 -91 
Q 1263 -91 848 271 
Q 434 634 434 1313 
Q 434 1759 690 2068 
Q 947 2378 1403 2484 
z
M 1172 3481 
Q 1172 3119 1398 2916 
Q 1625 2713 2034 2713 
Q 2441 2713 2670 2916 
Q 2900 3119 2900 3481 
Q 2900 3844 2670 4047 
Q 2441 4250 2034 4250 
Q 1625 4250 1398 4047 
Q 1172 3844 1172 3481 
z
" transform="scale(0.015625)"/>
       </defs>
       <use xlink:href="#DejaVuSans-38"/>
       <use xlink:href="#DejaVuSans-30" x="63.623047"/>
       <use xlink:href="#DejaVuSans-30" x="127.246094"/>
      </g>
     </g>
    </g>
    <g id="xtick_6">
     <g id="line2d_6">
      <g>
       <use xlink:href="#mcbf8f1d8b0" x="870.811601" y="616.4496" style="stroke: #000000; stroke-width: 0.8"/>
      </g>
     </g>
     <g id="text_6">
      <!-- 1000 -->
      <g transform="translate(858.086601 631.048037) scale(0.1 -0.1)">
       <defs>
        <path id="DejaVuSans-31" d="M 794 531 
L 1825 531 
L 1825 4091 
L 703 3866 
L 703 4441 
L 1819 4666 
L 2450 4666 
L 2450 531 
L 3481 531 
L 3481 0 
L 794 0 
L 794 531 
z
" transform="scale(0.015625)"/>
       </defs>
       <use xlink:href="#DejaVuSans-31"/>
       <use xlink:href="#DejaVuSans-30" x="63.623047"/>
       <use xlink:href="#DejaVuSans-30" x="127.246094"/>
       <use xlink:href="#DejaVuSans-30" x="190.869141"/>
      </g>
     </g>
    </g>
    <g id="xtick_7">
     <g id="line2d_7">
      <g>
       <use xlink:href="#mcbf8f1d8b0" x="1000.674285" y="616.4496" style="stroke: #000000; stroke-width: 0.8"/>
      </g>
     </g>
     <g id="text_7">
      <!-- 1200 -->
      <g transform="translate(987.949285 631.048037) scale(0.1 -0.1)">
       <use xlink:href="#DejaVuSans-31"/>
       <use xlink:href="#DejaVuSans-32" x="63.623047"/>
       <use xlink:href="#DejaVuSans-30" x="127.246094"/>
       <use xlink:href="#DejaVuSans-30" x="190.869141"/>
      </g>
     </g>
    </g>
    <g id="xtick_8">
     <g id="line2d_8">
      <g>
       <use xlink:href="#mcbf8f1d8b0" x="1130.536969" y="616.4496" style="stroke: #000000; stroke-width: 0.8"/>
      </g>
     </g>
     <g id="text_8">
      <!-- 1400 -->
      <g transform="translate(1117.811969 631.048037) scale(0.1 -0.1)">
       <use xlink:href="#DejaVuSans-31"/>
       <use xlink:href="#DejaVuSans-34" x="63.623047"/>
       <use xlink:href="#DejaVuSans-30" x="127.246094"/>
       <use xlink:href="#DejaVuSans-30" x="190.869141"/>
      </g>
     </g>
    </g>
    <g id="text_9">
     <!-- Time [s] -->
     <g transform="translate(688.151094 644.726162) scale(0.1 -0.1)">
      <defs>
       <path id="DejaVuSans-54" d="M -19 4666 
L 3928 4666 
L 3928 4134 
L 2272 4134 
L 2272 0 
L 1638 0 
L 1638 4134 
L -19 4134 
L -19 4666 
z
" transform="scale(0.015625)"/>
       <path id="DejaVuSans-69" d="M 603 3500 
L 1178 3500 
L 1178 0 
L 603 0 
L 603 3500 
z
M 603 4863 
L 1178 4863 
L 1178 4134 
L 603 4134 
L 603 4863 
z
" transform="scale(0.015625)"/>
       <path id="DejaVuSans-6d" d="M 3328 2828 
Q 3544 3216 3844 3400 
Q 4144 3584 4550 3584 
Q 5097 3584 5394 3201 
Q 5691 2819 5691 2113 
L 5691 0 
L 5113 0 
L 5113 2094 
Q 5113 2597 4934 2840 
Q 4756 3084 4391 3084 
Q 3944 3084 3684 2787 
Q 3425 2491 3425 1978 
L 3425 0 
L 2847 0 
L 2847 2094 
Q 2847 2600 2669 2842 
Q 2491 3084 2119 3084 
Q 1678 3084 1418 2786 
Q 1159 2488 1159 1978 
L 1159 0 
L 581 0 
L 581 3500 
L 1159 3500 
L 1159 2956 
Q 1356 3278 1631 3431 
Q 1906 3584 2284 3584 
Q 2666 3584 2933 3390 
Q 3200 3197 3328 2828 
z
" transform="scale(0.015625)"/>
       <path id="DejaVuSans-65" d="M 3597 1894 
L 3597 1613 
L 953 1613 
Q 991 1019 1311 708 
Q 1631 397 2203 397 
Q 2534 397 2845 478 
Q 3156 559 3463 722 
L 3463 178 
Q 3153 47 2828 -22 
Q 2503 -91 2169 -91 
Q 1331 -91 842 396 
Q 353 884 353 1716 
Q 353 2575 817 3079 
Q 1281 3584 2069 3584 
Q 2775 3584 3186 3129 
Q 3597 2675 3597 1894 
z
M 3022 2063 
Q 3016 2534 2758 2815 
Q 2500 3097 2075 3097 
Q 1594 3097 1305 2825 
Q 1016 2553 972 2059 
L 3022 2063 
z
" transform="scale(0.015625)"/>
       <path id="DejaVuSans-20" transform="scale(0.015625)"/>
       <path id="DejaVuSans-5b" d="M 550 4863 
L 1875 4863 
L 1875 4416 
L 1125 4416 
L 1125 -397 
L 1875 -397 
L 1875 -844 
L 550 -844 
L 550 4863 
z
" transform="scale(0.015625)"/>
       <path id="DejaVuSans-73" d="M 2834 3397 
L 2834 2853 
Q 2591 2978 2328 3040 
Q 2066 3103 1784 3103 
Q 1356 3103 1142 2972 
Q 928 2841 928 2578 
Q 928 2378 1081 2264 
Q 1234 2150 1697 2047 
L 1894 2003 
Q 2506 1872 2764 1633 
Q 3022 1394 3022 966 
Q 3022 478 2636 193 
Q 2250 -91 1575 -91 
Q 1294 -91 989 -36 
Q 684 19 347 128 
L 347 722 
Q 666 556 975 473 
Q 1284 391 1588 391 
Q 1994 391 2212 530 
Q 2431 669 2431 922 
Q 2431 1156 2273 1281 
Q 2116 1406 1581 1522 
L 1381 1569 
Q 847 1681 609 1914 
Q 372 2147 372 2553 
Q 372 3047 722 3315 
Q 1072 3584 1716 3584 
Q 2034 3584 2315 3537 
Q 2597 3491 2834 3397 
z
" transform="scale(0.015625)"/>
       <path id="DejaVuSans-5d" d="M 1947 4863 
L 1947 -844 
L 622 -844 
L 622 -397 
L 1369 -397 
L 1369 4416 
L 622 4416 
L 622 4863 
L 1947 4863 
z
" transform="scale(0.015625)"/>
      </defs>
      <use xlink:href="#DejaVuSans-54"/>
      <use xlink:href="#DejaVuSans-69" x="57.958984"/>
      <use xlink:href="#DejaVuSans-6d" x="85.742188"/>
      <use xlink:href="#DejaVuSans-65" x="183.154297"/>
      <use xlink:href="#DejaVuSans-20" x="244.677734"/>
      <use xlink:href="#DejaVuSans-5b" x="276.464844"/>
      <use xlink:href="#DejaVuSans-73" x="315.478516"/>
      <use xlink:href="#DejaVuSans-5d" x="367.578125"/>
     </g>
    </g>
   </g>
   <g id="matplotlib.axis_2">
    <g id="ytick_1">
     <g id="line2d_9">
      <defs>
       <path id="m4f2db5a5e2" d="M 0 0 
L -3.5 0 
" style="stroke: #000000; stroke-width: 0.8"/>
      </defs>
      <g>
       <use xlink:href="#m4f2db5a5e2" x="172.8" y="593.037289" style="stroke: #000000; stroke-width: 0.8"/>
      </g>
     </g>
     <g id="text_10">
      <!-- 0.00 -->
      <g transform="translate(143.534375 596.836508) scale(0.1 -0.1)">
       <defs>
        <path id="DejaVuSans-2e" d="M 684 794 
L 1344 794 
L 1344 0 
L 684 0 
L 684 794 
z
" transform="scale(0.015625)"/>
       </defs>
       <use xlink:href="#DejaVuSans-30"/>
       <use xlink:href="#DejaVuSans-2e" x="63.623047"/>
       <use xlink:href="#DejaVuSans-30" x="95.410156"/>
       <use xlink:href="#DejaVuSans-30" x="159.033203"/>
      </g>
     </g>
    </g>
    <g id="ytick_2">
     <g id="line2d_10">
      <g>
       <use xlink:href="#m4f2db5a5e2" x="172.8" y="502.356767" style="stroke: #000000; stroke-width: 0.8"/>
      </g>
     </g>
     <g id="text_11">
      <!-- 0.05 -->
      <g transform="translate(143.534375 506.155985) scale(0.1 -0.1)">
       <defs>
        <path id="DejaVuSans-35" d="M 691 4666 
L 3169 4666 
L 3169 4134 
L 1269 4134 
L 1269 2991 
Q 1406 3038 1543 3061 
Q 1681 3084 1819 3084 
Q 2600 3084 3056 2656 
Q 3513 2228 3513 1497 
Q 3513 744 3044 326 
Q 2575 -91 1722 -91 
Q 1428 -91 1123 -41 
Q 819 9 494 109 
L 494 744 
Q 775 591 1075 516 
Q 1375 441 1709 441 
Q 2250 441 2565 725 
Q 2881 1009 2881 1497 
Q 2881 1984 2565 2268 
Q 2250 2553 1709 2553 
Q 1456 2553 1204 2497 
Q 953 2441 691 2322 
L 691 4666 
z
" transform="scale(0.015625)"/>
       </defs>
       <use xlink:href="#DejaVuSans-30"/>
       <use xlink:href="#DejaVuSans-2e" x="63.623047"/>
       <use xlink:href="#DejaVuSans-30" x="95.410156"/>
       <use xlink:href="#DejaVuSans-35" x="159.033203"/>
      </g>
     </g>
    </g>
    <g id="ytick_3">
     <g id="line2d_11">
      <g>
       <use xlink:href="#m4f2db5a5e2" x="172.8" y="411.676244" style="stroke: #000000; stroke-width: 0.8"/>
      </g>
     </g>
     <g id="text_12">
      <!-- 0.10 -->
      <g transform="translate(143.534375 415.475463) scale(0.1 -0.1)">
       <use xlink:href="#DejaVuSans-30"/>
       <use xlink:href="#DejaVuSans-2e" x="63.623047"/>
       <use xlink:href="#DejaVuSans-31" x="95.410156"/>
       <use xlink:href="#DejaVuSans-30" x="159.033203"/>
      </g>
     </g>
    </g>
    <g id="ytick_4">
     <g id="line2d_12">
      <g>
       <use xlink:href="#m4f2db5a5e2" x="172.8" y="320.995721" style="stroke: #000000; stroke-width: 0.8"/>
      </g>
     </g>
     <g id="text_13">
      <!-- 0.15 -->
      <g transform="translate(143.534375 324.79494) scale(0.1 -0.1)">
       <use xlink:href="#DejaVuSans-30"/>
       <use xlink:href="#DejaVuSans-2e" x="63.623047"/>
       <use xlink:href="#DejaVuSans-31" x="95.410156"/>
       <use xlink:href="#DejaVuSans-35" x="159.033203"/>
      </g>
     </g>
    </g>
    <g id="ytick_5">
     <g id="line2d_13">
      <g>
       <use xlink:href="#m4f2db5a5e2" x="172.8" y="230.315198" style="stroke: #000000; stroke-width: 0.8"/>
      </g>
     </g>
     <g id="text_14">
      <!-- 0.20 -->
      <g transform="translate(143.534375 234.114417) scale(0.1 -0.1)">
       <use xlink:href="#DejaVuSans-30"/>
       <use xlink:href="#DejaVuSans-2e" x="63.623047"/>
       <use xlink:href="#DejaVuSans-32" x="95.410156"/>
       <use xlink:href="#DejaVuSans-30" x="159.033203"/>
      </g>
     </g>
    </g>
    <g id="ytick_6">
     <g id="line2d_14">
      <g>
       <use xlink:href="#m4f2db5a5e2" x="172.8" y="139.634676" style="stroke: #000000; stroke-width: 0.8"/>
      </g>
     </g>
     <g id="text_15">
      <!-- 0.25 -->
      <g transform="translate(143.534375 143.433894) scale(0.1 -0.1)">
       <use xlink:href="#DejaVuSans-30"/>
       <use xlink:href="#DejaVuSans-2e" x="63.623047"/>
       <use xlink:href="#DejaVuSans-32" x="95.410156"/>
       <use xlink:href="#DejaVuSans-35" x="159.033203"/>
      </g>
     </g>
    </g>
    <g id="text_16">
     <!-- Concentration [M] -->
     <g transform="translate(137.454687 394.958981) rotate(-90) scale(0.1 -0.1)">
      <defs>
       <path id="DejaVuSans-43" d="M 4122 4306 
L 4122 3641 
Q 3803 3938 3442 4084 
Q 3081 4231 2675 4231 
Q 1875 4231 1450 3742 
Q 1025 3253 1025 2328 
Q 1025 1406 1450 917 
Q 1875 428 2675 428 
Q 3081 428 3442 575 
Q 3803 722 4122 1019 
L 4122 359 
Q 3791 134 3420 21 
Q 3050 -91 2638 -91 
Q 1578 -91 968 557 
Q 359 1206 359 2328 
Q 359 3453 968 4101 
Q 1578 4750 2638 4750 
Q 3056 4750 3426 4639 
Q 3797 4528 4122 4306 
z
" transform="scale(0.015625)"/>
       <path id="DejaVuSans-6f" d="M 1959 3097 
Q 1497 3097 1228 2736 
Q 959 2375 959 1747 
Q 959 1119 1226 758 
Q 1494 397 1959 397 
Q 2419 397 2687 759 
Q 2956 1122 2956 1747 
Q 2956 2369 2687 2733 
Q 2419 3097 1959 3097 
z
M 1959 3584 
Q 2709 3584 3137 3096 
Q 3566 2609 3566 1747 
Q 3566 888 3137 398 
Q 2709 -91 1959 -91 
Q 1206 -91 779 398 
Q 353 888 353 1747 
Q 353 2609 779 3096 
Q 1206 3584 1959 3584 
z
" transform="scale(0.015625)"/>
       <path id="DejaVuSans-6e" d="M 3513 2113 
L 3513 0 
L 2938 0 
L 2938 2094 
Q 2938 2591 2744 2837 
Q 2550 3084 2163 3084 
Q 1697 3084 1428 2787 
Q 1159 2491 1159 1978 
L 1159 0 
L 581 0 
L 581 3500 
L 1159 3500 
L 1159 2956 
Q 1366 3272 1645 3428 
Q 1925 3584 2291 3584 
Q 2894 3584 3203 3211 
Q 3513 2838 3513 2113 
z
" transform="scale(0.015625)"/>
       <path id="DejaVuSans-63" d="M 3122 3366 
L 3122 2828 
Q 2878 2963 2633 3030 
Q 2388 3097 2138 3097 
Q 1578 3097 1268 2742 
Q 959 2388 959 1747 
Q 959 1106 1268 751 
Q 1578 397 2138 397 
Q 2388 397 2633 464 
Q 2878 531 3122 666 
L 3122 134 
Q 2881 22 2623 -34 
Q 2366 -91 2075 -91 
Q 1284 -91 818 406 
Q 353 903 353 1747 
Q 353 2603 823 3093 
Q 1294 3584 2113 3584 
Q 2378 3584 2631 3529 
Q 2884 3475 3122 3366 
z
" transform="scale(0.015625)"/>
       <path id="DejaVuSans-74" d="M 1172 4494 
L 1172 3500 
L 2356 3500 
L 2356 3053 
L 1172 3053 
L 1172 1153 
Q 1172 725 1289 603 
Q 1406 481 1766 481 
L 2356 481 
L 2356 0 
L 1766 0 
Q 1100 0 847 248 
Q 594 497 594 1153 
L 594 3053 
L 172 3053 
L 172 3500 
L 594 3500 
L 594 4494 
L 1172 4494 
z
" transform="scale(0.015625)"/>
       <path id="DejaVuSans-72" d="M 2631 2963 
Q 2534 3019 2420 3045 
Q 2306 3072 2169 3072 
Q 1681 3072 1420 2755 
Q 1159 2438 1159 1844 
L 1159 0 
L 581 0 
L 581 3500 
L 1159 3500 
L 1159 2956 
Q 1341 3275 1631 3429 
Q 1922 3584 2338 3584 
Q 2397 3584 2469 3576 
Q 2541 3569 2628 3553 
L 2631 2963 
z
" transform="scale(0.015625)"/>
       <path id="DejaVuSans-61" d="M 2194 1759 
Q 1497 1759 1228 1600 
Q 959 1441 959 1056 
Q 959 750 1161 570 
Q 1363 391 1709 391 
Q 2188 391 2477 730 
Q 2766 1069 2766 1631 
L 2766 1759 
L 2194 1759 
z
M 3341 1997 
L 3341 0 
L 2766 0 
L 2766 531 
Q 2569 213 2275 61 
Q 1981 -91 1556 -91 
Q 1019 -91 701 211 
Q 384 513 384 1019 
Q 384 1609 779 1909 
Q 1175 2209 1959 2209 
L 2766 2209 
L 2766 2266 
Q 2766 2663 2505 2880 
Q 2244 3097 1772 3097 
Q 1472 3097 1187 3025 
Q 903 2953 641 2809 
L 641 3341 
Q 956 3463 1253 3523 
Q 1550 3584 1831 3584 
Q 2591 3584 2966 3190 
Q 3341 2797 3341 1997 
z
" transform="scale(0.015625)"/>
       <path id="DejaVuSans-4d" d="M 628 4666 
L 1569 4666 
L 2759 1491 
L 3956 4666 
L 4897 4666 
L 4897 0 
L 4281 0 
L 4281 4097 
L 3078 897 
L 2444 897 
L 1241 4097 
L 1241 0 
L 628 0 
L 628 4666 
z
" transform="scale(0.015625)"/>
      </defs>
      <use xlink:href="#DejaVuSans-43"/>
      <use xlink:href="#DejaVuSans-6f" x="69.824219"/>
      <use xlink:href="#DejaVuSans-6e" x="131.005859"/>
      <use xlink:href="#DejaVuSans-63" x="194.384766"/>
      <use xlink:href="#DejaVuSans-65" x="249.365234"/>
      <use xlink:href="#DejaVuSans-6e" x="310.888672"/>
      <use xlink:href="#DejaVuSans-74" x="374.267578"/>
      <use xlink:href="#DejaVuSans-72" x="413.476562"/>
      <use xlink:href="#DejaVuSans-61" x="454.589844"/>
      <use xlink:href="#DejaVuSans-74" x="515.869141"/>
      <use xlink:href="#DejaVuSans-69" x="555.078125"/>
      <use xlink:href="#DejaVuSans-6f" x="582.861328"/>
      <use xlink:href="#DejaVuSans-6e" x="644.042969"/>
      <use xlink:href="#DejaVuSans-20" x="707.421875"/>
      <use xlink:href="#DejaVuSans-5b" x="739.208984"/>
      <use xlink:href="#DejaVuSans-4d" x="778.222656"/>
      <use xlink:href="#DejaVuSans-5d" x="864.501953"/>
     </g>
    </g>
   </g>
   <g id="line2d_15">
    <path d="M 221.498182 591.222504 
L 227.64718 589.996505 
L 232.30925 588.845212 
L 236.289542 587.637282 
L 239.854272 586.325972 
L 243.133305 584.885027 
L 246.211051 583.291095 
L 249.145947 581.520931 
L 251.970461 579.557439 
L 254.717056 577.376739 
L 257.411707 574.952036 
L 260.073892 572.255138 
L 262.716598 569.258761 
L 265.359303 565.922412 
L 268.008502 562.215999 
L 270.683673 558.08673 
L 273.404297 553.472726 
L 276.189851 548.303315 
L 279.059816 542.500296 
L 282.053151 535.936325 
L 285.215308 528.455101 
L 288.637189 519.773755 
L 292.487618 509.377817 
L 297.253578 495.830287 
L 310.694366 457.229752 
L 314.239618 447.960703 
L 317.291391 440.584802 
L 320.031493 434.526712 
L 322.550829 429.482355 
L 324.894851 425.27468 
L 327.096023 421.769719 
L 329.173826 418.869022 
L 331.147739 416.485546 
L 333.037241 414.545118 
L 334.848825 412.996798 
L 336.595479 411.790295 
L 338.29668 410.881235 
L 339.958922 410.241571 
L 341.601685 409.845121 
L 343.244448 409.676674 
L 344.900197 409.730602 
L 346.588412 410.009004 
L 348.328572 410.523225 
L 350.140157 411.293466 
L 352.042645 412.34845 
L 354.049023 413.720228 
L 356.178771 415.450964 
L 358.451368 417.590057 
L 360.886294 420.193438 
L 363.50952 423.33084 
L 366.347019 427.079742 
L 369.418272 431.514144 
L 372.768729 436.75169 
L 376.430857 442.8993 
L 380.450107 450.091313 
L 384.878424 458.481563 
L 389.780741 468.257268 
L 395.234974 479.641577 
L 401.370985 492.977332 
L 408.617323 509.281133 
L 427.064317 551.091081 
L 430.668007 558.500359 
L 433.602903 564.045787 
L 436.135226 568.37069 
L 438.394837 571.803448 
L 440.472639 574.566645 
L 442.427073 576.804256 
L 444.303589 578.621391 
L 446.147639 580.102274 
L 448.004675 581.310622 
L 449.92015 582.29231 
L 451.958994 583.086039 
L 454.205618 583.718669 
L 456.789886 584.209579 
L 459.92607 584.570366 
L 464.016744 584.804664 
L 469.880044 584.900509 
L 479.041857 584.808327 
L 492.151495 584.446633 
L 506.046802 583.846141 
L 518.409729 583.095532 
L 529.026004 582.233927 
L 538.187816 581.272485 
L 546.19385 580.213354 
L 553.27786 579.056077 
L 559.628145 577.796995 
L 565.381062 576.433029 
L 570.653487 574.957368 
L 575.529831 573.364281 
L 580.088011 571.643182 
L 584.379973 569.786593 
L 588.457661 567.781768 
L 592.366528 565.612785 
L 596.139039 563.265311 
L 599.80766 560.720405 
L 603.404856 557.953638 
L 606.9566 554.94009 
L 610.495358 551.643864 
L 614.047103 548.028948 
L 617.644299 544.047379 
L 621.332399 539.629239 
L 625.163349 534.68745 
L 629.215064 529.091309 
L 633.636889 522.595349 
L 638.753478 514.667719 
L 645.98683 503.003772 
L 655.447326 487.810672 
L 660.167835 480.663248 
L 664.076702 475.136886 
L 667.531049 470.628773 
L 670.680219 466.876189 
L 673.608623 463.72559 
L 676.361712 461.083702 
L 678.978445 458.875025 
L 681.484795 457.045391 
L 683.906734 455.548913 
L 686.257248 454.354732 
L 688.555818 453.433698 
L 690.821922 452.763662 
L 693.068546 452.330393 
L 695.308677 452.123949 
L 697.568288 452.139339 
L 699.853871 452.377735 
L 702.1914 452.846519 
L 704.593859 453.557278 
L 707.074236 454.525051 
L 709.658504 455.774969 
L 712.359648 457.331788 
L 715.197147 459.227369 
L 718.196975 461.503137 
L 721.378611 464.200748 
L 724.768027 467.371096 
L 728.397689 471.076133 
L 732.306556 475.39029 
L 736.533586 480.393425 
L 741.137218 486.193838 
L 746.19537 492.932192 
L 751.83141 500.819705 
L 758.285586 510.246867 
L 766.265648 522.318395 
L 785.31001 551.300575 
L 790.004546 557.923576 
L 793.829002 562.947442 
L 797.140501 566.941244 
L 800.120849 570.195526 
L 802.867445 572.872564 
L 805.464699 575.09897 
L 807.971049 576.958061 
L 810.431947 578.509457 
L 812.905831 579.80768 
L 815.444646 580.889165 
L 818.119817 581.785459 
L 821.009262 582.516089 
L 824.229857 583.096788 
L 827.956916 583.536556 
L 832.456658 583.83519 
L 838.151136 583.980082 
L 845.644213 583.937101 
L 855.280024 583.65176 
L 866.162517 583.106897 
L 876.726847 582.35932 
L 886.271754 581.465565 
L 894.751787 580.452697 
L 902.316289 579.32927 
L 909.121093 578.097413 
L 915.302557 576.755646 
L 920.977556 575.299068 
L 926.236995 573.721996 
L 931.158791 572.015941 
L 935.801382 570.172996 
L 940.223206 568.179546 
L 944.463223 566.025041 
L 948.566883 563.690793 
L 952.566654 561.159868 
L 956.501493 558.406174 
L 960.397374 555.407382 
L 964.293255 552.126497 
L 968.228094 548.519698 
L 972.247344 544.530376 
L 976.40295 540.088477 
L 980.792309 535.065756 
L 985.571255 529.250871 
L 991.083926 522.17912 
L 998.836728 511.831784 
L 1009.089387 498.199233 
L 1014.173511 491.822147 
L 1018.387556 486.883724 
L 1022.121108 482.843183 
L 1025.536496 479.468075 
L 1028.718132 476.630542 
L 1031.724453 474.241903 
L 1034.594418 472.240923 
L 1037.360494 470.57989 
L 1040.042158 469.225958 
L 1042.658891 468.151135 
L 1045.236665 467.331045 
L 1047.788467 466.751658 
L 1050.327283 466.402296 
L 1052.879084 466.275606 
L 1055.456859 466.371042 
L 1058.073592 466.691243 
L 1060.748763 467.243517 
L 1063.508345 468.042324 
L 1066.365324 469.103597 
L 1069.33918 470.448678 
L 1072.449391 472.102801 
L 1075.72193 474.09877 
L 1079.182771 476.474056 
L 1082.864378 479.275058 
L 1086.799217 482.552657 
L 1091.039234 486.378921 
L 1095.642866 490.838506 
L 1100.694525 496.048131 
L 1106.324072 502.18096 
L 1112.752275 509.522427 
L 1120.518063 518.744232 
L 1132.738142 533.655486 
L 1143.627128 546.813953 
L 1149.828071 553.96442 
L 1154.762853 559.326299 
L 1158.989883 563.599704 
L 1162.762394 567.104612 
L 1166.223235 570.02241 
L 1169.469802 572.473774 
L 1172.580013 574.547301 
L 1175.612307 576.304387 
L 1178.625121 577.794889 
L 1181.676894 579.056996 
L 1184.826064 580.118305 
L 1188.150549 581.002356 
L 1191.741252 581.72419 
L 1195.461818 582.262595 
L 1195.461818 582.262595 
" clip-path="url(#pdaefb15c0e)" style="fill: none; stroke: #1f77b4; stroke-width: 1.5; stroke-linecap: square"/>
   </g>
   <g id="line2d_16">
    <path d="M 221.498182 591.224314 
L 228.023782 591.750501 
L 234.841573 592.074332 
L 242.380101 592.204621 
L 251.671776 592.130322 
L 276.047002 591.597295 
L 315.603176 590.689529 
L 334.180033 589.997237 
L 352.652999 589.084996 
L 370.171476 588.00281 
L 384.235604 586.922429 
L 394.786947 585.899233 
L 402.857913 584.902076 
L 409.266637 583.893868 
L 414.539061 582.845531 
L 419.012831 581.734161 
L 422.915205 580.539791 
L 426.42799 579.234921 
L 429.687544 577.788084 
L 432.823727 576.152113 
L 436.005363 574.237711 
L 439.563601 571.826365 
L 449.770808 564.721648 
L 452.231705 563.405733 
L 454.465344 562.45921 
L 456.608078 561.789982 
L 458.744319 561.354826 
L 460.938998 561.135193 
L 463.26354 561.128256 
L 465.795863 561.346719 
L 468.652842 561.822109 
L 472.009792 562.61394 
L 476.236823 563.851492 
L 482.457245 565.928392 
L 500.112077 571.920448 
L 508.144084 574.352162 
L 516.039735 576.509867 
L 524.123687 578.487311 
L 532.551776 580.318324 
L 541.42789 582.017286 
L 550.829948 583.588652 
L 560.803402 585.028162 
L 571.32228 586.320152 
L 582.28269 587.441312 
L 593.528799 588.367781 
L 605.021646 589.090814 
L 616.943041 589.616175 
L 629.689063 589.952025 
L 643.727219 590.095297 
L 659.375673 590.028572 
L 676.738313 589.728556 
L 695.828128 589.173178 
L 715.917885 588.366572 
L 734.235017 587.416356 
L 748.675747 586.455066 
L 759.740048 585.505001 
L 768.4863 584.538359 
L 775.674199 583.526469 
L 781.836184 582.438982 
L 787.335868 581.245692 
L 792.510896 579.895886 
L 797.763842 578.292517 
L 804.445277 575.998856 
L 812.113668 573.408734 
L 816.055001 572.3209 
L 819.45091 571.611013 
L 822.652025 571.167632 
L 825.833661 570.951979 
L 829.12568 570.953868 
L 832.664438 571.18174 
L 836.644729 571.666461 
L 841.397704 572.47815 
L 847.741496 573.803056 
L 879.096841 580.657121 
L 888.823556 582.394372 
L 898.79701 583.948405 
L 909.21849 585.34542 
L 920.152928 586.585226 
L 931.574351 587.655274 
L 943.411335 588.540021 
L 955.670372 589.232017 
L 968.546257 589.733881 
L 982.47403 590.050643 
L 997.973142 590.176232 
L 1015.407207 590.09079 
L 1034.919075 589.768858 
L 1056.573678 589.185699 
L 1079.364579 588.350254 
L 1099.688089 587.391641 
L 1115.492377 586.43403 
L 1127.712456 585.479405 
L 1137.601499 584.490361 
L 1146.049067 583.426529 
L 1153.756417 582.233428 
L 1161.561165 580.796096 
L 1182.546974 576.769278 
L 1187.176579 576.233628 
L 1191.501006 575.956144 
L 1195.461818 575.899919 
L 1195.461818 575.899919 
" clip-path="url(#pdaefb15c0e)" style="fill: none; stroke: #ff7f0e; stroke-width: 1.5; stroke-linecap: square"/>
   </g>
   <g id="line2d_17">
    <path d="M 221.498182 591.223137 
L 226.192718 590.719426 
L 230.621035 590.023395 
L 234.705217 589.15962 
L 238.458248 588.141343 
L 241.912596 586.976167 
L 245.120204 585.661608 
L 248.126525 584.190812 
L 250.977011 582.54905 
L 253.697634 580.725197 
L 256.314367 578.702995 
L 258.853183 576.459367 
L 261.33356 573.969474 
L 263.774979 571.201187 
L 266.183931 568.130962 
L 268.579898 564.713148 
L 270.969371 560.912104 
L 273.358845 556.687887 
L 275.761304 551.982481 
L 278.183243 546.742047 
L 280.631155 540.906876 
L 283.111532 534.411293 
L 285.637361 527.164342 
L 288.221629 519.06269 
L 290.870828 510.013831 
L 293.604437 499.871559 
L 296.441937 488.472765 
L 299.402806 475.640554 
L 302.526003 461.096341 
L 305.863474 444.471818 
L 309.49963 425.200394 
L 313.590304 402.281154 
L 318.5121 373.3757 
L 326.258409 326.345931 
L 334.36184 277.579041 
L 339.199225 249.819846 
L 343.257434 227.788709 
L 346.880603 209.315462 
L 350.198595 193.526266 
L 353.282833 179.905651 
L 356.178771 168.101705 
L 358.905888 157.896832 
L 361.490155 149.067127 
L 363.94456 141.454553 
L 366.275595 134.931914 
L 368.489754 129.379688 
L 370.600022 124.673694 
L 372.606401 120.729851 
L 374.508889 117.466926 
L 376.320474 114.789548 
L 378.041154 112.632542 
L 379.677424 110.927956 
L 381.242269 109.611545 
L 382.73569 108.639028 
L 384.177166 107.961002 
L 385.57319 107.546268 
L 386.943241 107.368556 
L 388.306799 107.41507 
L 389.683344 107.685804 
L 391.085861 108.19044 
L 392.53383 108.950978 
L 394.040237 109.99739 
L 395.624562 111.375025 
L 397.286804 113.121472 
L 399.046443 115.300963 
L 400.90348 117.963742 
L 402.870899 121.183538 
L 404.948702 125.020295 
L 407.149875 129.562699 
L 409.48091 134.895464 
L 411.948301 141.108705 
L 414.558541 148.296874 
L 417.331109 156.597311 
L 420.285485 166.159228 
L 423.454135 177.184717 
L 426.901989 190.007706 
L 430.752418 205.212193 
L 435.33657 224.264382 
L 442.699784 255.984443 
L 449.822753 286.305787 
L 454.549754 305.454749 
L 458.796264 321.745432 
L 462.854473 336.443216 
L 466.821778 349.985464 
L 470.743631 362.59058 
L 474.646005 374.392384 
L 478.535392 385.454151 
L 482.418286 395.834516 
L 486.301181 405.586646 
L 490.184075 414.74335 
L 494.066969 423.335812 
L 497.949863 431.393475 
L 501.832758 438.943991 
L 505.715652 446.013223 
L 509.598546 452.62526 
L 513.48144 458.802442 
L 517.364335 464.565385 
L 521.240736 469.924344 
L 525.110644 474.898389 
L 528.974059 479.504753 
L 532.817994 483.745093 
L 536.648943 487.64263 
L 540.45392 491.199033 
L 544.226431 494.423464 
L 547.959983 497.325028 
L 551.654576 499.91702 
L 555.297225 502.203008 
L 558.881435 504.191726 
L 562.39422 505.888938 
L 565.835581 507.307196 
L 569.205518 508.457432 
L 572.497537 509.347643 
L 575.705145 509.986499 
L 578.834836 510.384782 
L 581.886609 510.550583 
L 584.866958 510.491139 
L 587.782375 510.211427 
L 590.639354 509.714253 
L 593.444388 509.000293 
L 596.20397 508.068105 
L 598.924593 506.914112 
L 601.619244 505.528914 
L 604.294415 503.902637 
L 606.963093 502.017991 
L 609.625278 499.863521 
L 612.293957 497.415065 
L 614.975621 494.649639 
L 617.676765 491.541063 
L 620.403881 488.059875 
L 623.169956 484.163727 
L 625.981483 479.813874 
L 628.844956 474.968308 
L 631.773359 469.569697 
L 634.77968 463.554374 
L 637.883398 456.838463 
L 641.0975 449.345071 
L 644.45445 440.944646 
L 647.986715 431.495402 
L 651.752733 420.772794 
L 655.836915 408.457756 
L 660.408081 393.946255 
L 665.842834 375.918982 
L 673.952759 348.145428 
L 683.705446 314.920751 
L 689.01683 297.627246 
L 693.438655 283.965994 
L 697.360508 272.553625 
L 700.938225 262.8117 
L 704.249723 254.425211 
L 707.346948 247.172777 
L 710.268858 240.885062 
L 713.034934 235.449856 
L 715.65816 230.775077 
L 718.158017 226.765214 
L 720.540997 223.354327 
L 722.820087 220.472634 
L 725.00178 218.06555 
L 727.092569 216.083029 
L 729.105441 214.474986 
L 731.046888 213.203456 
L 732.929897 212.23193 
L 734.760961 211.533602 
L 736.559559 211.083131 
L 738.338678 210.865834 
L 740.111303 210.873613 
L 741.890422 211.104761 
L 743.68902 211.563849 
L 745.526577 212.264582 
L 747.416079 213.226579 
L 749.364019 214.471391 
L 751.389877 216.034696 
L 753.493653 217.943547 
L 755.694825 220.24661 
L 757.999888 222.987024 
L 760.415334 226.211463 
L 762.947656 229.969938 
L 765.609841 234.326585 
L 768.414875 239.352064 
L 771.369251 245.109686 
L 774.498942 251.705766 
L 777.823427 259.242065 
L 781.375171 267.855754 
L 785.219107 277.774743 
L 789.465616 289.365344 
L 794.361439 303.39991 
L 800.76367 322.481203 
L 814.522621 363.664666 
L 819.697649 378.318899 
L 824.294788 390.681691 
L 828.619215 401.682283 
L 832.787808 411.686909 
L 836.871989 420.917728 
L 840.904225 429.487623 
L 844.903996 437.471979 
L 848.89078 444.938275 
L 852.864579 451.912132 
L 856.831884 458.429204 
L 860.792695 464.51188 
L 864.753507 470.190459 
L 868.714319 475.483099 
L 872.668638 480.398925 
L 876.616463 484.955188 
L 880.557796 489.167587 
L 884.492635 493.050237 
L 888.414488 496.610009 
L 892.316862 499.854096 
L 896.193263 502.789852 
L 900.037199 505.424668 
L 903.848668 507.769661 
L 907.614686 509.827442 
L 911.328759 511.605223 
L 914.984393 513.110186 
L 918.575097 514.349589 
L 922.094375 515.330911 
L 925.54223 516.063201 
L 928.918659 516.554407 
L 932.223665 516.81158 
L 935.457246 516.841091 
L 938.625895 516.648207 
L 941.729613 516.237146 
L 944.781386 515.608827 
L 947.781214 514.764401 
L 950.742083 513.699892 
L 953.670487 512.410431 
L 956.579411 510.885455 
L 959.468856 509.118566 
L 962.351807 507.093825 
L 965.241252 504.790661 
L 968.13719 502.195875 
L 971.052607 499.282858 
L 974.00049 496.019867 
L 976.987332 492.37812 
L 980.019626 488.326496 
L 983.116851 483.812141 
L 986.2855 478.795491 
L 989.545053 473.212925 
L 992.91499 466.994103 
L 996.421283 460.050127 
L 1000.10289 452.257407 
L 1004.011756 443.45293 
L 1008.2258 433.401065 
L 1012.894364 421.673988 
L 1018.33561 407.380247 
L 1025.685838 387.390762 
L 1039.107147 350.827488 
L 1044.554886 336.705485 
L 1049.132546 325.44032 
L 1053.203741 315.997633 
L 1056.9308 307.902617 
L 1060.391641 300.906661 
L 1063.638208 294.835338 
L 1066.702967 289.565872 
L 1069.611891 284.997345 
L 1072.384459 281.048352 
L 1075.040151 277.6459 
L 1077.58546 274.740158 
L 1080.026878 272.283907 
L 1082.383886 270.222549 
L 1084.662976 268.520334 
L 1086.870642 267.144797 
L 1089.019869 266.063937 
L 1091.123645 265.252062 
L 1093.194955 264.68954 
L 1095.240292 264.363238 
L 1097.279136 264.262869 
L 1099.31798 264.384988 
L 1101.376304 264.731568 
L 1103.467093 265.310533 
L 1105.603334 266.135067 
L 1107.798013 267.223634 
L 1110.057624 268.595727 
L 1112.401646 270.283356 
L 1114.836571 272.315309 
L 1117.368893 274.722774 
L 1120.011599 277.546494 
L 1122.777674 280.832328 
L 1125.680105 284.630975 
L 1128.731878 288.997509 
L 1131.952473 294.001126 
L 1135.354875 299.705404 
L 1138.971551 306.210807 
L 1142.847952 313.650655 
L 1147.042516 322.193474 
L 1151.672121 332.140424 
L 1156.977012 344.083793 
L 1163.703899 359.812095 
L 1181.852209 402.53584 
L 1187.332414 414.684024 
L 1192.221744 424.992266 
L 1195.461818 431.51514 
L 1195.461818 431.51514 
" clip-path="url(#pdaefb15c0e)" style="fill: none; stroke: #2ca02c; stroke-width: 1.5; stroke-linecap: square"/>
   </g>
   <g id="patch_3">
    <path d="M 172.8 616.4496 
L 172.8 83.1168 
" style="fill: none; stroke: #000000; stroke-width: 0.8; stroke-linejoin: miter; stroke-linecap: square"/>
   </g>
   <g id="patch_4">
    <path d="M 1244.16 616.4496 
L 1244.16 83.1168 
" style="fill: none; stroke: #000000; stroke-width: 0.8; stroke-linejoin: miter; stroke-linecap: square"/>
   </g>
   <g id="patch_5">
    <path d="M 172.8 616.4496 
L 1244.16 616.4496 
" style="fill: none; stroke: #000000; stroke-width: 0.8; stroke-linejoin: miter; stroke-linecap: square"/>
   </g>
   <g id="patch_6">
    <path d="M 172.8 83.1168 
L 1244.16 83.1168 
" style="fill: none; stroke: #000000; stroke-width: 0.8; stroke-linejoin: miter; stroke-linecap: square"/>
   </g>
   <g id="legend_1">
    <g id="line2d_18">
     <path d="M 636.576094 68.537113 
L 646.576094 68.537113 
L 656.576094 68.537113 
" style="fill: none; stroke: #1f77b4; stroke-width: 1.5; stroke-linecap: square"/>
    </g>
    <g id="text_17">
     <!-- X -->
     <g transform="translate(664.576094 72.037113) scale(0.1 -0.1)">
      <defs>
       <path id="DejaVuSans-58" d="M 403 4666 
L 1081 4666 
L 2241 2931 
L 3406 4666 
L 4084 4666 
L 2584 2425 
L 4184 0 
L 3506 0 
L 2194 1984 
L 872 0 
L 191 0 
L 1856 2491 
L 403 4666 
z
" transform="scale(0.015625)"/>
      </defs>
      <use xlink:href="#DejaVuSans-58"/>
     </g>
    </g>
    <g id="line2d_19">
     <path d="M 691.426094 68.537113 
L 701.426094 68.537113 
L 711.426094 68.537113 
" style="fill: none; stroke: #ff7f0e; stroke-width: 1.5; stroke-linecap: square"/>
    </g>
    <g id="text_18">
     <!-- Y -->
     <g transform="translate(719.426094 72.037113) scale(0.1 -0.1)">
      <defs>
       <path id="DejaVuSans-59" d="M -13 4666 
L 666 4666 
L 1959 2747 
L 3244 4666 
L 3922 4666 
L 2272 2222 
L 2272 0 
L 1638 0 
L 1638 2222 
L -13 4666 
z
" transform="scale(0.015625)"/>
      </defs>
      <use xlink:href="#DejaVuSans-59"/>
     </g>
    </g>
    <g id="line2d_20">
     <path d="M 745.533906 68.537113 
L 755.533906 68.537113 
L 765.533906 68.537113 
" style="fill: none; stroke: #2ca02c; stroke-width: 1.5; stroke-linecap: square"/>
    </g>
    <g id="text_19">
     <!-- Z -->
     <g transform="translate(773.533906 72.037113) scale(0.1 -0.1)">
      <defs>
       <path id="DejaVuSans-5a" d="M 359 4666 
L 4025 4666 
L 4025 4184 
L 1075 531 
L 4097 531 
L 4097 0 
L 288 0 
L 288 481 
L 3238 4134 
L 359 4134 
L 359 4666 
z
" transform="scale(0.015625)"/>
      </defs>
      <use xlink:href="#DejaVuSans-5a"/>
     </g>
    </g>
   </g>
  </g>
 </g>
 <defs>
  <clipPath id="pdaefb15c0e">
   <rect x="172.8" y="83.1168" width="1071.36" height="533.3328"/>
  </clipPath>
 </defs>
</svg>
